<?xml version="1.0" standalone="no"?><!DOCTYPE svg PUBLIC "-//W3C//DTD SVG 1.1//EN" "http://www.w3.org/Graphics/SVG/1.1/DTD/svg11.dtd"><svg t="1774342314059" class="icon" viewBox="0 0 1024 1024" version="1.1" xmlns="http://www.w3.org/2000/svg" p-id="1664" xmlns:xlink="http://www.w3.org/1999/xlink" width="200" height="200"><path d="M512.277473 68.803046C314.359416 66.431728 151.994753 224.949654 149.614219 422.87795v0.127985c0 195.842642 284.079031 495.238997 284.079031 495.238998 35.711072 43.306254 99.756123 49.464924 143.062377 13.752827a100.26909 100.26909 0 0 0 14.087639-14.156238s284.079031-298.992945 284.079031-494.836611c-2.301694-197.917033-164.607996-356.504583-362.526053-354.201865h-0.138225 0.019454z m0 506.926648c-90.58723-1.987361-162.403571-77.02075-160.416209-167.598765s77.030989-162.394356 167.598764-160.416209c89.190651 1.957669 160.456141 74.80711 160.456141 164.007999-0.944022 91.531252-75.90881 164.961236-167.441086 164.006975h-0.19761z" fill="#FF6E96" p-id="1665"></path></svg>